<mxfile host="65bd71144e">
    <diagram name="Page-1" id="E90DCbVw8iHSE0YzWJ5c">
        <mxGraphModel dx="1352" dy="576" grid="1" gridSize="8" guides="1" tooltips="1" connect="1" arrows="1" fold="1" page="1" pageScale="1" pageWidth="827" pageHeight="1169" math="1" shadow="0">
            <root>
                <mxCell id="0"/>
                <mxCell id="1" parent="0"/>
                <mxCell id="NFxeUcVusJWuIpaQc8pF-1" value="" style="rounded=1;whiteSpace=wrap;html=1;" parent="1" vertex="1">
                    <mxGeometry x="223" y="112" width="160" height="208" as="geometry"/>
                </mxCell>
                <mxCell id="FWXDVtIiAIGIqecCg6dk-13" value="" style="rounded=0;orthogonalLoop=1;jettySize=auto;html=1;exitX=1;exitY=1;exitDx=0;exitDy=0;entryX=0;entryY=0;entryDx=0;entryDy=0;endArrow=none;endFill=0;" parent="1" source="FWXDVtIiAIGIqecCg6dk-2" target="FWXDVtIiAIGIqecCg6dk-6" edge="1">
                    <mxGeometry relative="1" as="geometry"/>
                </mxCell>
                <mxCell id="FWXDVtIiAIGIqecCg6dk-2" value="1" style="ellipse;whiteSpace=wrap;html=1;fillColor=none;" parent="1" vertex="1">
                    <mxGeometry x="239" y="128" width="32" height="32" as="geometry"/>
                </mxCell>
                <mxCell id="FWXDVtIiAIGIqecCg6dk-10" value="" style="rounded=0;orthogonalLoop=1;jettySize=auto;html=1;exitX=0;exitY=1;exitDx=0;exitDy=0;entryX=1;entryY=0;entryDx=0;entryDy=0;endArrow=none;endFill=0;" parent="1" source="FWXDVtIiAIGIqecCg6dk-3" target="FWXDVtIiAIGIqecCg6dk-7" edge="1">
                    <mxGeometry relative="1" as="geometry"/>
                </mxCell>
                <mxCell id="FWXDVtIiAIGIqecCg6dk-12" value="" style="rounded=0;orthogonalLoop=1;jettySize=auto;html=1;exitX=1;exitY=1;exitDx=0;exitDy=0;entryX=0;entryY=0;entryDx=0;entryDy=0;endArrow=none;endFill=0;" parent="1" source="FWXDVtIiAIGIqecCg6dk-3" target="FWXDVtIiAIGIqecCg6dk-4" edge="1">
                    <mxGeometry relative="1" as="geometry"/>
                </mxCell>
                <mxCell id="FWXDVtIiAIGIqecCg6dk-32" value="" style="edgeStyle=orthogonalEdgeStyle;rounded=0;orthogonalLoop=1;jettySize=auto;html=1;exitX=0.5;exitY=1;exitDx=0;exitDy=0;entryX=0.5;entryY=0;entryDx=0;entryDy=0;endArrow=none;endFill=0;" parent="1" source="FWXDVtIiAIGIqecCg6dk-3" target="FWXDVtIiAIGIqecCg6dk-8" edge="1">
                    <mxGeometry relative="1" as="geometry"/>
                </mxCell>
                <mxCell id="FWXDVtIiAIGIqecCg6dk-3" value="4" style="ellipse;whiteSpace=wrap;html=1;fillColor=none;" parent="1" vertex="1">
                    <mxGeometry x="287" y="224" width="32" height="32" as="geometry"/>
                </mxCell>
                <mxCell id="FWXDVtIiAIGIqecCg6dk-4" value="7" style="ellipse;whiteSpace=wrap;html=1;fillColor=none;" parent="1" vertex="1">
                    <mxGeometry x="335" y="272" width="32" height="32" as="geometry"/>
                </mxCell>
                <mxCell id="FWXDVtIiAIGIqecCg6dk-14" value="" style="rounded=0;orthogonalLoop=1;jettySize=auto;html=1;exitX=0;exitY=1;exitDx=0;exitDy=0;entryX=1;entryY=0;entryDx=0;entryDy=0;endArrow=none;endFill=0;" parent="1" source="FWXDVtIiAIGIqecCg6dk-5" target="FWXDVtIiAIGIqecCg6dk-6" edge="1">
                    <mxGeometry relative="1" as="geometry"/>
                </mxCell>
                <mxCell id="FWXDVtIiAIGIqecCg6dk-5" value="3" style="ellipse;whiteSpace=wrap;html=1;fillColor=none;" parent="1" vertex="1">
                    <mxGeometry x="335" y="128" width="32" height="32" as="geometry"/>
                </mxCell>
                <mxCell id="FWXDVtIiAIGIqecCg6dk-9" value="" style="edgeStyle=orthogonalEdgeStyle;rounded=0;orthogonalLoop=1;jettySize=auto;html=1;exitX=0.5;exitY=1;exitDx=0;exitDy=0;entryX=0.5;entryY=0;entryDx=0;entryDy=0;startArrow=none;startFill=0;endArrow=none;endFill=0;" parent="1" source="FWXDVtIiAIGIqecCg6dk-6" target="FWXDVtIiAIGIqecCg6dk-3" edge="1">
                    <mxGeometry relative="1" as="geometry"/>
                </mxCell>
                <mxCell id="FWXDVtIiAIGIqecCg6dk-6" value="2" style="ellipse;whiteSpace=wrap;html=1;fillColor=none;" parent="1" vertex="1">
                    <mxGeometry x="287" y="176" width="32" height="32" as="geometry"/>
                </mxCell>
                <mxCell id="FWXDVtIiAIGIqecCg6dk-7" value="5" style="ellipse;whiteSpace=wrap;html=1;fillColor=none;" parent="1" vertex="1">
                    <mxGeometry x="239" y="272" width="32" height="32" as="geometry"/>
                </mxCell>
                <mxCell id="FWXDVtIiAIGIqecCg6dk-8" value="6" style="ellipse;whiteSpace=wrap;html=1;fillColor=none;" parent="1" vertex="1">
                    <mxGeometry x="287" y="272" width="32" height="32" as="geometry"/>
                </mxCell>
                <mxCell id="FWXDVtIiAIGIqecCg6dk-15" value="" style="shape=flexArrow;endArrow=classic;html=1;rounded=0;" parent="1" edge="1">
                    <mxGeometry width="50" height="50" relative="1" as="geometry">
                        <mxPoint x="335" y="64" as="sourcePoint"/>
                        <mxPoint x="455" y="64" as="targetPoint"/>
                    </mxGeometry>
                </mxCell>
                <mxCell id="FWXDVtIiAIGIqecCg6dk-16" value="&lt;h3&gt;CAM Generator&lt;/h3&gt;" style="edgeLabel;html=1;align=center;verticalAlign=middle;resizable=0;points=[];labelBackgroundColor=none;" parent="FWXDVtIiAIGIqecCg6dk-15" vertex="1" connectable="0">
                    <mxGeometry x="-0.1667" y="-2" relative="1" as="geometry">
                        <mxPoint x="-2" y="22" as="offset"/>
                    </mxGeometry>
                </mxCell>
                <mxCell id="FWXDVtIiAIGIqecCg6dk-79" value="$$\mathcal{G}' = \langle \mathcal{V}', \mathcal{E}' \rangle$$" style="text;html=1;align=center;verticalAlign=middle;whiteSpace=wrap;rounded=0;" parent="1" vertex="1">
                    <mxGeometry x="659" y="320" width="60" height="30" as="geometry"/>
                </mxCell>
                <mxCell id="FWXDVtIiAIGIqecCg6dk-62" value="" style="shape=flexArrow;endArrow=classic;html=1;rounded=0;" parent="1" edge="1">
                    <mxGeometry width="50" height="50" relative="1" as="geometry">
                        <mxPoint x="529" y="64" as="sourcePoint"/>
                        <mxPoint x="649" y="64" as="targetPoint"/>
                    </mxGeometry>
                </mxCell>
                <mxCell id="FWXDVtIiAIGIqecCg6dk-90" value="$$X', A' = \text{COARSEN}(X, A, C))$$" style="edgeLabel;html=1;align=center;verticalAlign=middle;resizable=0;points=[];labelBackgroundColor=none;" parent="FWXDVtIiAIGIqecCg6dk-62" vertex="1" connectable="0">
                    <mxGeometry x="-0.1333" y="-4" relative="1" as="geometry">
                        <mxPoint y="27" as="offset"/>
                    </mxGeometry>
                </mxCell>
                <mxCell id="FWXDVtIiAIGIqecCg6dk-91" value="$$\mathcal{G} = \langle \mathcal{V}, \mathcal{E} \rangle$$" style="text;html=1;align=center;verticalAlign=middle;whiteSpace=wrap;rounded=0;" parent="1" vertex="1">
                    <mxGeometry x="273" y="320" width="60" height="30" as="geometry"/>
                </mxCell>
                <mxCell id="NFxeUcVusJWuIpaQc8pF-18" value="" style="rounded=1;whiteSpace=wrap;html=1;" parent="1" vertex="1">
                    <mxGeometry x="417" y="112" width="160" height="208" as="geometry"/>
                </mxCell>
                <mxCell id="NFxeUcVusJWuIpaQc8pF-19" value="0.65" style="rounded=0;orthogonalLoop=1;jettySize=auto;html=1;exitX=1;exitY=1;exitDx=0;exitDy=0;entryX=0;entryY=0;entryDx=0;entryDy=0;endArrow=none;endFill=0;" parent="1" source="NFxeUcVusJWuIpaQc8pF-20" target="NFxeUcVusJWuIpaQc8pF-29" edge="1">
                    <mxGeometry relative="1" as="geometry"/>
                </mxCell>
                <mxCell id="NFxeUcVusJWuIpaQc8pF-20" value="1" style="ellipse;whiteSpace=wrap;html=1;fillColor=#dae8fc;strokeColor=#6c8ebf;" parent="1" vertex="1">
                    <mxGeometry x="433" y="128" width="32" height="32" as="geometry"/>
                </mxCell>
                <mxCell id="NFxeUcVusJWuIpaQc8pF-21" value="0.75" style="rounded=0;orthogonalLoop=1;jettySize=auto;html=1;exitX=0;exitY=1;exitDx=0;exitDy=0;entryX=1;entryY=0;entryDx=0;entryDy=0;endArrow=none;endFill=0;" parent="1" source="NFxeUcVusJWuIpaQc8pF-24" target="NFxeUcVusJWuIpaQc8pF-30" edge="1">
                    <mxGeometry relative="1" as="geometry"/>
                </mxCell>
                <mxCell id="NFxeUcVusJWuIpaQc8pF-22" value="0.95" style="rounded=0;orthogonalLoop=1;jettySize=auto;html=1;exitX=1;exitY=1;exitDx=0;exitDy=0;entryX=0;entryY=0;entryDx=0;entryDy=0;endArrow=none;endFill=0;" parent="1" source="NFxeUcVusJWuIpaQc8pF-24" target="NFxeUcVusJWuIpaQc8pF-25" edge="1">
                    <mxGeometry relative="1" as="geometry"/>
                </mxCell>
                <mxCell id="NFxeUcVusJWuIpaQc8pF-23" value="0.8" style="edgeStyle=orthogonalEdgeStyle;rounded=0;orthogonalLoop=1;jettySize=auto;html=1;exitX=0.5;exitY=1;exitDx=0;exitDy=0;entryX=0.5;entryY=0;entryDx=0;entryDy=0;endArrow=none;endFill=0;" parent="1" source="NFxeUcVusJWuIpaQc8pF-24" target="NFxeUcVusJWuIpaQc8pF-31" edge="1">
                    <mxGeometry relative="1" as="geometry"/>
                </mxCell>
                <mxCell id="NFxeUcVusJWuIpaQc8pF-24" value="4" style="ellipse;whiteSpace=wrap;html=1;fillColor=#f8cecc;strokeColor=#b85450;" parent="1" vertex="1">
                    <mxGeometry x="481" y="224" width="32" height="32" as="geometry"/>
                </mxCell>
                <mxCell id="NFxeUcVusJWuIpaQc8pF-25" value="7" style="ellipse;whiteSpace=wrap;html=1;fillColor=#f8cecc;strokeColor=#b85450;" parent="1" vertex="1">
                    <mxGeometry x="529" y="272" width="32" height="32" as="geometry"/>
                </mxCell>
                <mxCell id="NFxeUcVusJWuIpaQc8pF-27" value="3" style="ellipse;whiteSpace=wrap;html=1;fillColor=#d5e8d4;strokeColor=#82b366;" parent="1" vertex="1">
                    <mxGeometry x="529" y="128" width="32" height="32" as="geometry"/>
                </mxCell>
                <mxCell id="NFxeUcVusJWuIpaQc8pF-29" value="2" style="ellipse;whiteSpace=wrap;html=1;fillColor=#dae8fc;strokeColor=#6c8ebf;" parent="1" vertex="1">
                    <mxGeometry x="481" y="176" width="32" height="32" as="geometry"/>
                </mxCell>
                <mxCell id="NFxeUcVusJWuIpaQc8pF-30" value="5" style="ellipse;whiteSpace=wrap;html=1;fillColor=#f8cecc;strokeColor=#b85450;" parent="1" vertex="1">
                    <mxGeometry x="433" y="272" width="32" height="32" as="geometry"/>
                </mxCell>
                <mxCell id="NFxeUcVusJWuIpaQc8pF-31" value="6" style="ellipse;whiteSpace=wrap;html=1;fillColor=#f8cecc;strokeColor=#b85450;" parent="1" vertex="1">
                    <mxGeometry x="481" y="272" width="32" height="32" as="geometry"/>
                </mxCell>
                <mxCell id="NFxeUcVusJWuIpaQc8pF-32" value="" style="rounded=1;whiteSpace=wrap;html=1;" parent="1" vertex="1">
                    <mxGeometry x="609" y="112" width="160" height="208" as="geometry"/>
                </mxCell>
                <mxCell id="NFxeUcVusJWuIpaQc8pF-49" style="edgeStyle=none;rounded=0;orthogonalLoop=1;jettySize=auto;html=1;exitX=0;exitY=1;exitDx=0;exitDy=0;entryX=1;entryY=0;entryDx=0;entryDy=0;strokeColor=default;align=center;verticalAlign=middle;fontFamily=Helvetica;fontSize=11;fontColor=default;labelBackgroundColor=default;endArrow=none;endFill=0;" parent="1" source="NFxeUcVusJWuIpaQc8pF-40" target="NFxeUcVusJWuIpaQc8pF-44" edge="1">
                    <mxGeometry relative="1" as="geometry"/>
                </mxCell>
                <mxCell id="NFxeUcVusJWuIpaQc8pF-40" value="3" style="ellipse;whiteSpace=wrap;html=1;fillColor=#d5e8d4;strokeColor=#82b366;" parent="1" vertex="1">
                    <mxGeometry x="721" y="128" width="32" height="32" as="geometry"/>
                </mxCell>
                <mxCell id="NFxeUcVusJWuIpaQc8pF-48" style="edgeStyle=none;rounded=0;orthogonalLoop=1;jettySize=auto;html=1;exitX=0.5;exitY=1;exitDx=0;exitDy=0;entryX=0.5;entryY=0;entryDx=0;entryDy=0;strokeColor=default;align=center;verticalAlign=middle;fontFamily=Helvetica;fontSize=11;fontColor=default;labelBackgroundColor=default;endArrow=none;endFill=0;" parent="1" source="NFxeUcVusJWuIpaQc8pF-44" target="NFxeUcVusJWuIpaQc8pF-46" edge="1">
                    <mxGeometry relative="1" as="geometry"/>
                </mxCell>
                <mxCell id="NFxeUcVusJWuIpaQc8pF-44" value="1,2" style="ellipse;whiteSpace=wrap;html=1;fillColor=#dae8fc;strokeColor=#6c8ebf;" parent="1" vertex="1">
                    <mxGeometry x="641" y="160" width="32" height="32" as="geometry"/>
                </mxCell>
                <mxCell id="NFxeUcVusJWuIpaQc8pF-46" value="4-7" style="ellipse;whiteSpace=wrap;html=1;fillColor=#f8cecc;strokeColor=#b85450;" parent="1" vertex="1">
                    <mxGeometry x="673" y="248" width="32" height="32" as="geometry"/>
                </mxCell>
            </root>
        </mxGraphModel>
    </diagram>
</mxfile>